<svg width="928" height="173" viewBox="0 0 928 173" fill="none" xmlns="http://www.w3.org/2000/svg">
<mask id="path-1-outside-1_159_2" maskUnits="userSpaceOnUse" x="-0.844611" y="-1.00704" width="930.17" height="175.556" fill="black">
<rect fill="white" x="-0.844611" y="-1.00704" width="930.17" height="175.556"/>
<path d="M23.9171 166.414L24.0849 142.664L0.335446 142.496L0.503169 118.747L48.002 119.082L47.8343 142.832L119.082 143.335L119.418 95.8362L24.4203 95.1654L24.588 71.4159L0.838616 71.2482L1.17406 23.7494L24.9235 23.9171L25.0912 0.167723L143.838 1.00634L143.671 24.7557L167.42 24.9235L167.252 48.6729L119.753 48.3374L119.921 24.588L48.6729 24.0848L48.3374 71.5837L143.335 72.2546L143.167 96.004L166.917 96.1717L166.581 143.671L142.832 143.503L142.664 167.252L23.9171 166.414ZM213.912 167.755L214.08 144.006L190.331 143.838L190.834 72.59L214.583 72.7577L214.751 49.0083L333.498 49.8469L333.33 73.5964L357.08 73.7641L356.577 145.012L332.827 144.845L332.659 168.594L213.912 167.755ZM237.83 144.174L309.078 144.677L309.581 73.4286L238.333 72.9255L237.83 144.174ZM403.908 169.097L404.075 145.348L380.326 145.18L380.829 73.9318L404.579 74.0995L404.746 50.3501L547.243 51.3564L547.075 75.1059L428.328 74.2672L427.825 145.515L546.572 146.354L546.404 170.103L403.908 169.097ZM642.408 28.2779L642.576 4.52853L690.075 4.86397L689.907 28.6134L642.408 28.2779ZM593.903 170.439L594.071 146.69L641.569 147.025L642.073 75.7768L618.323 75.609L618.491 51.8596L689.739 52.3628L689.068 147.36L736.567 147.696L736.399 171.445L593.903 170.439ZM783.898 171.781L784.066 148.031L760.317 147.864L760.82 76.6154L784.569 76.7831L784.737 53.0337L903.484 53.8723L903.316 77.6217L927.066 77.7894L926.562 149.038L902.813 148.87L902.645 172.619L783.898 171.781ZM807.815 148.199L879.064 148.702L879.567 77.454L808.318 76.9508L807.815 148.199Z"/>
</mask>
<path d="M23.9171 166.414L24.0849 142.664L0.335446 142.496L0.503169 118.747L48.002 119.082L47.8343 142.832L119.082 143.335L119.418 95.8362L24.4203 95.1654L24.588 71.4159L0.838616 71.2482L1.17406 23.7494L24.9235 23.9171L25.0912 0.167723L143.838 1.00634L143.671 24.7557L167.42 24.9235L167.252 48.6729L119.753 48.3374L119.921 24.588L48.6729 24.0848L48.3374 71.5837L143.335 72.2546L143.167 96.004L166.917 96.1717L166.581 143.671L142.832 143.503L142.664 167.252L23.9171 166.414ZM213.912 167.755L214.08 144.006L190.331 143.838L190.834 72.59L214.583 72.7577L214.751 49.0083L333.498 49.8469L333.33 73.5964L357.08 73.7641L356.577 145.012L332.827 144.845L332.659 168.594L213.912 167.755ZM237.83 144.174L309.078 144.677L309.581 73.4286L238.333 72.9255L237.83 144.174ZM403.908 169.097L404.075 145.348L380.326 145.18L380.829 73.9318L404.579 74.0995L404.746 50.3501L547.243 51.3564L547.075 75.1059L428.328 74.2672L427.825 145.515L546.572 146.354L546.404 170.103L403.908 169.097ZM642.408 28.2779L642.576 4.52853L690.075 4.86397L689.907 28.6134L642.408 28.2779ZM593.903 170.439L594.071 146.69L641.569 147.025L642.073 75.7768L618.323 75.609L618.491 51.8596L689.739 52.3628L689.068 147.36L736.567 147.696L736.399 171.445L593.903 170.439ZM783.898 171.781L784.066 148.031L760.317 147.864L760.82 76.6154L784.569 76.7831L784.737 53.0337L903.484 53.8723L903.316 77.6217L927.066 77.7894L926.562 149.038L902.813 148.87L902.645 172.619L783.898 171.781ZM807.815 148.199L879.064 148.702L879.567 77.454L808.318 76.9508L807.815 148.199Z" fill="black"/>
<path d="M23.9171 166.414L22.9172 166.407L22.9101 167.406L23.9101 167.414L23.9171 166.414ZM24.0849 142.664L25.0848 142.671L25.0919 141.671L24.0919 141.664L24.0849 142.664ZM0.335446 142.496L-0.664529 142.489L-0.671591 143.489L0.328384 143.496L0.335446 142.496ZM0.503169 118.747L0.510231 117.747L-0.489744 117.74L-0.496806 118.74L0.503169 118.747ZM48.002 119.082L49.002 119.09L49.009 118.09L48.009 118.083L48.002 119.082ZM47.8343 142.832L46.8343 142.825L46.8272 143.825L47.8272 143.832L47.8343 142.832ZM119.082 143.335L119.075 144.335L120.075 144.342L120.082 143.342L119.082 143.335ZM119.418 95.8362L120.418 95.8433L120.425 94.8433L119.425 94.8363L119.418 95.8362ZM24.4203 95.1654L23.4203 95.1583L23.4133 96.1583L24.4132 96.1653L24.4203 95.1654ZM24.588 71.4159L25.588 71.423L25.5951 70.423L24.5951 70.416L24.588 71.4159ZM0.838616 71.2482L-0.161359 71.2412L-0.168421 72.2411L0.831554 72.2482L0.838616 71.2482ZM1.17406 23.7494L1.18112 22.7494L0.181149 22.7424L0.174087 23.7423L1.17406 23.7494ZM24.9235 23.9171L24.9164 24.9171L25.9164 24.9242L25.9234 23.9242L24.9235 23.9171ZM25.0912 0.167723L25.0983 -0.832252L24.0983 -0.839314L24.0912 0.160661L25.0912 0.167723ZM143.838 1.00634L144.838 1.0134L144.845 0.0134264L143.845 0.00636441L143.838 1.00634ZM143.671 24.7557L142.671 24.7487L142.663 25.7486L143.663 25.7557L143.671 24.7557ZM167.42 24.9235L168.42 24.9305L168.427 23.9305L167.427 23.9235L167.42 24.9235ZM167.252 48.6729L167.245 49.6728L168.245 49.6799L168.252 48.6799L167.252 48.6729ZM119.753 48.3374L118.753 48.3304L118.746 49.3303L119.746 49.3374L119.753 48.3374ZM119.921 24.588L120.921 24.5951L120.928 23.5951L119.928 23.588L119.921 24.588ZM48.6729 24.0848L48.6799 23.0849L47.68 23.0778L47.6729 24.0778L48.6729 24.0848ZM48.3374 71.5837L47.3375 71.5766L47.3304 72.5766L48.3304 72.5836L48.3374 71.5837ZM143.335 72.2546L144.335 72.2616L144.342 71.2617L143.342 71.2546L143.335 72.2546ZM143.167 96.004L142.167 95.9969L142.16 96.9969L143.16 97.0039L143.167 96.004ZM166.917 96.1717L167.917 96.1788L167.924 95.1788L166.924 95.1717L166.917 96.1717ZM166.581 143.671L166.574 144.67L167.574 144.678L167.581 143.678L166.581 143.671ZM142.832 143.503L142.839 142.503L141.839 142.496L141.832 143.496L142.832 143.503ZM142.664 167.252L142.657 168.252L143.657 168.259L143.664 167.259L142.664 167.252ZM24.9171 166.421L25.0848 142.671L23.0849 142.657L22.9172 166.407L24.9171 166.421ZM24.0919 141.664L0.342508 141.496L0.328384 143.496L24.0778 143.664L24.0919 141.664ZM1.33542 142.504L1.50314 118.754L-0.496806 118.74L-0.664529 142.489L1.33542 142.504ZM0.496107 119.747L47.9949 120.082L48.009 118.083L0.510231 117.747L0.496107 119.747ZM47.002 119.075L46.8343 142.825L48.8342 142.839L49.002 119.09L47.002 119.075ZM47.8272 143.832L119.075 144.335L119.09 142.335L47.8413 141.832L47.8272 143.832ZM120.082 143.342L120.418 95.8433L118.418 95.8292L118.083 143.328L120.082 143.342ZM119.425 94.8363L24.4274 94.1654L24.4132 96.1653L119.411 96.8362L119.425 94.8363ZM25.4203 95.1724L25.588 71.423L23.588 71.4089L23.4203 95.1583L25.4203 95.1724ZM24.5951 70.416L0.845678 70.2482L0.831554 72.2482L24.581 72.4159L24.5951 70.416ZM1.83859 71.2553L2.17404 23.7565L0.174087 23.7423L-0.161359 71.2412L1.83859 71.2553ZM1.167 24.7494L24.9164 24.9171L24.9305 22.9171L1.18112 22.7494L1.167 24.7494ZM25.9234 23.9242L26.0912 0.174785L24.0912 0.160661L23.9235 23.9101L25.9234 23.9242ZM25.0841 1.1677L143.831 2.00631L143.845 0.00636441L25.0983 -0.832252L25.0841 1.1677ZM142.838 0.999277L142.671 24.7487L144.67 24.7628L144.838 1.0134L142.838 0.999277ZM143.663 25.7557L167.413 25.9234L167.427 23.9235L143.678 23.7558L143.663 25.7557ZM166.42 24.9164L166.252 48.6658L168.252 48.6799L168.42 24.9305L166.42 24.9164ZM167.259 47.6729L119.76 47.3374L119.746 49.3374L167.245 49.6728L167.259 47.6729ZM120.753 48.3445L120.921 24.5951L118.921 24.581L118.753 48.3304L120.753 48.3445ZM119.928 23.588L48.6799 23.0849L48.6658 25.0848L119.914 25.588L119.928 23.588ZM47.6729 24.0778L47.3375 71.5766L49.3374 71.5907L49.6729 24.0919L47.6729 24.0778ZM48.3304 72.5836L143.328 73.2545L143.342 71.2546L48.3445 70.5837L48.3304 72.5836ZM142.335 72.2475L142.167 95.9969L144.167 96.011L144.335 72.2616L142.335 72.2475ZM143.16 97.0039L166.91 97.1717L166.924 95.1717L143.174 95.004L143.16 97.0039ZM165.917 96.1646L165.581 143.663L167.581 143.678L167.917 96.1788L165.917 96.1646ZM166.588 142.671L142.839 142.503L142.825 144.503L166.574 144.67L166.588 142.671ZM141.832 143.496L141.664 167.245L143.664 167.259L143.832 143.51L141.832 143.496ZM142.671 166.252L23.9242 165.414L23.9101 167.414L142.657 168.252L142.671 166.252ZM213.912 167.755L212.912 167.748L212.905 168.748L213.905 168.755L213.912 167.755ZM214.08 144.006L215.08 144.013L215.087 143.013L214.087 143.006L214.08 144.006ZM190.331 143.838L189.331 143.831L189.324 144.831L190.324 144.838L190.331 143.838ZM190.834 72.59L190.841 71.59L189.841 71.583L189.834 72.5829L190.834 72.59ZM214.583 72.7577L214.576 73.7577L215.576 73.7648L215.583 72.7648L214.583 72.7577ZM214.751 49.0083L214.758 48.0083L213.758 48.0013L213.751 49.0013L214.751 49.0083ZM333.498 49.8469L334.498 49.854L334.505 48.854L333.505 48.847L333.498 49.8469ZM333.33 73.5964L332.33 73.5893L332.323 74.5893L333.323 74.5963L333.33 73.5964ZM357.08 73.7641L358.08 73.7711L358.087 72.7712L357.087 72.7641L357.08 73.7641ZM356.577 145.012L356.57 146.012L357.569 146.019L357.577 145.019L356.577 145.012ZM332.827 144.845L332.834 143.845L331.834 143.838L331.827 144.838L332.827 144.845ZM332.659 168.594L332.652 169.594L333.652 169.601L333.659 168.601L332.659 168.594ZM237.83 144.174L236.83 144.167L236.822 145.167L237.822 145.174L237.83 144.174ZM309.078 144.677L309.071 145.677L310.071 145.684L310.078 144.684L309.078 144.677ZM309.581 73.4286L310.581 73.4357L310.588 72.4357L309.588 72.4287L309.581 73.4286ZM238.333 72.9255L238.34 71.9255L237.34 71.9184L237.333 72.9184L238.333 72.9255ZM214.912 167.762L215.08 144.013L213.08 143.999L212.912 167.748L214.912 167.762ZM214.087 143.006L190.338 142.838L190.324 144.838L214.073 145.006L214.087 143.006ZM191.331 143.845L191.834 72.5971L189.834 72.5829L189.331 143.831L191.331 143.845ZM190.827 73.59L214.576 73.7577L214.59 71.7578L190.841 71.59L190.827 73.59ZM215.583 72.7648L215.751 49.0154L213.751 49.0013L213.583 72.7507L215.583 72.7648ZM214.744 50.0083L333.491 50.8469L333.505 48.847L214.758 48.0083L214.744 50.0083ZM332.498 49.8399L332.33 73.5893L334.33 73.6034L334.498 49.854L332.498 49.8399ZM333.323 74.5963L357.073 74.764L357.087 72.7641L333.337 72.5964L333.323 74.5963ZM356.08 73.757L355.577 145.005L357.577 145.019L358.08 73.7711L356.08 73.757ZM356.584 144.012L332.834 143.845L332.82 145.845L356.57 146.012L356.584 144.012ZM331.827 144.838L331.659 168.587L333.659 168.601L333.827 144.852L331.827 144.838ZM332.667 167.594L213.919 166.755L213.905 168.755L332.652 169.594L332.667 167.594ZM237.822 145.174L309.071 145.677L309.085 143.677L237.837 143.174L237.822 145.174ZM310.078 144.684L310.581 73.4357L308.581 73.4216L308.078 144.67L310.078 144.684ZM309.588 72.4287L238.34 71.9255L238.326 73.9254L309.574 74.4286L309.588 72.4287ZM237.333 72.9184L236.83 144.167L238.83 144.181L239.333 72.9325L237.333 72.9184ZM403.908 169.097L402.908 169.09L402.901 170.09L403.901 170.097L403.908 169.097ZM404.075 145.348L405.075 145.355L405.082 144.355L404.082 144.348L404.075 145.348ZM380.326 145.18L379.326 145.173L379.319 146.173L380.319 146.18L380.326 145.18ZM380.829 73.9318L380.836 72.9318L379.836 72.9248L379.829 73.9247L380.829 73.9318ZM404.579 74.0995L404.571 75.0995L405.571 75.1066L405.579 74.1066L404.579 74.0995ZM404.746 50.3501L404.753 49.3501L403.753 49.3431L403.746 50.343L404.746 50.3501ZM547.243 51.3564L548.243 51.3635L548.25 50.3635L547.25 50.3565L547.243 51.3564ZM547.075 75.1059L547.068 76.1058L548.068 76.1129L548.075 75.1129L547.075 75.1059ZM428.328 74.2672L428.335 73.2673L427.335 73.2602L427.328 74.2602L428.328 74.2672ZM427.825 145.515L426.825 145.508L426.818 146.508L427.818 146.515L427.825 145.515ZM546.572 146.354L547.572 146.361L547.579 145.361L546.579 145.354L546.572 146.354ZM546.404 170.103L546.397 171.103L547.397 171.111L547.404 170.111L546.404 170.103ZM404.908 169.104L405.075 145.355L403.075 145.341L402.908 169.09L404.908 169.104ZM404.082 144.348L380.333 144.18L380.319 146.18L404.068 146.348L404.082 144.348ZM381.326 145.187L381.829 73.9389L379.829 73.9247L379.326 145.173L381.326 145.187ZM380.822 74.9318L404.571 75.0995L404.586 73.0995L380.836 72.9318L380.822 74.9318ZM405.579 74.1066L405.746 50.3572L403.746 50.343L403.579 74.0925L405.579 74.1066ZM404.739 51.3501L547.236 52.3564L547.25 50.3565L404.753 49.3501L404.739 51.3501ZM546.243 51.3494L546.075 75.0988L548.075 75.1129L548.243 51.3635L546.243 51.3494ZM547.082 74.1059L428.335 73.2673L428.321 75.2672L547.068 76.1058L547.082 74.1059ZM427.328 74.2602L426.825 145.508L428.825 145.523L429.328 74.2743L427.328 74.2602ZM427.818 146.515L546.565 147.354L546.579 145.354L427.832 144.515L427.818 146.515ZM545.572 146.347L545.404 170.096L547.404 170.111L547.572 146.361L545.572 146.347ZM546.411 169.104L403.915 168.097L403.901 170.097L546.397 171.103L546.411 169.104ZM642.408 28.2779L641.408 28.2709L641.401 29.2708L642.401 29.2779L642.408 28.2779ZM642.576 4.52853L642.583 3.52855L641.583 3.52149L641.576 4.52147L642.576 4.52853ZM690.075 4.86397L691.075 4.87104L691.082 3.87106L690.082 3.864L690.075 4.86397ZM689.907 28.6134L689.9 29.6133L690.9 29.6204L690.907 28.6204L689.907 28.6134ZM593.903 170.439L592.903 170.432L592.896 171.432L593.896 171.439L593.903 170.439ZM594.071 146.69L594.078 145.69L593.078 145.682L593.071 146.682L594.071 146.69ZM641.569 147.025L641.562 148.025L642.562 148.032L642.569 147.032L641.569 147.025ZM642.073 75.7768L643.073 75.7838L643.08 74.7838L642.08 74.7768L642.073 75.7768ZM618.323 75.609L617.323 75.602L617.316 76.6019L618.316 76.609L618.323 75.609ZM618.491 51.8596L618.498 50.8596L617.498 50.8526L617.491 51.8525L618.491 51.8596ZM689.739 52.3628L690.739 52.3698L690.746 51.3699L689.746 51.3628L689.739 52.3628ZM689.068 147.36L688.068 147.353L688.061 148.353L689.061 148.36L689.068 147.36ZM736.567 147.696L737.567 147.703L737.574 146.703L736.574 146.696L736.567 147.696ZM736.399 171.445L736.392 172.445L737.392 172.452L737.399 171.452L736.399 171.445ZM643.408 28.285L643.576 4.53559L641.576 4.52147L641.408 28.2709L643.408 28.285ZM642.569 5.5285L690.068 5.86395L690.082 3.864L642.583 3.52855L642.569 5.5285ZM689.075 4.85691L688.907 28.6063L690.907 28.6204L691.075 4.87104L689.075 4.85691ZM689.914 27.6134L642.415 27.2779L642.401 29.2779L689.9 29.6133L689.914 27.6134ZM594.903 170.446L595.071 146.697L593.071 146.682L592.903 170.432L594.903 170.446ZM594.064 147.69L641.562 148.025L641.577 146.025L594.078 145.69L594.064 147.69ZM642.569 147.032L643.073 75.7838L641.073 75.7697L640.57 147.018L642.569 147.032ZM642.08 74.7768L618.33 74.6091L618.316 76.609L642.066 76.7767L642.08 74.7768ZM619.323 75.6161L619.491 51.8667L617.491 51.8525L617.323 75.602L619.323 75.6161ZM618.484 52.8596L689.732 53.3628L689.746 51.3628L618.498 50.8596L618.484 52.8596ZM688.739 52.3557L688.068 147.353L690.068 147.367L690.739 52.3698L688.739 52.3557ZM689.061 148.36L736.56 148.696L736.574 146.696L689.075 146.36L689.061 148.36ZM735.567 147.689L735.399 171.438L737.399 171.452L737.567 147.703L735.567 147.689ZM736.406 170.445L593.91 169.439L593.896 171.439L736.392 172.445L736.406 170.445ZM783.898 171.781L782.898 171.774L782.891 172.774L783.891 172.781L783.898 171.781ZM784.066 148.031L785.066 148.038L785.073 147.038L784.073 147.031L784.066 148.031ZM760.317 147.864L759.317 147.857L759.309 148.857L760.309 148.864L760.317 147.864ZM760.82 76.6154L760.827 75.6154L759.827 75.6083L759.82 76.6083L760.82 76.6154ZM784.569 76.7831L784.562 77.7831L785.562 77.7901L785.569 76.7902L784.569 76.7831ZM784.737 53.0337L784.744 52.0337L783.744 52.0266L783.737 53.0266L784.737 53.0337ZM903.484 53.8723L904.484 53.8794L904.491 52.8794L903.491 52.8723L903.484 53.8723ZM903.316 77.6217L902.316 77.6146L902.309 78.6146L903.309 78.6217L903.316 77.6217ZM927.066 77.7894L928.066 77.7965L928.073 76.7965L927.073 76.7895L927.066 77.7894ZM926.562 149.038L926.555 150.038L927.555 150.045L927.562 149.045L926.562 149.038ZM902.813 148.87L902.82 147.87L901.82 147.863L901.813 148.863L902.813 148.87ZM902.645 172.619L902.638 173.619L903.638 173.626L903.645 172.626L902.645 172.619ZM807.815 148.199L806.815 148.192L806.808 149.192L807.808 149.199L807.815 148.199ZM879.064 148.702L879.056 149.702L880.056 149.709L880.064 148.709L879.064 148.702ZM879.567 77.454L880.567 77.461L880.574 76.4611L879.574 76.454L879.567 77.454ZM808.318 76.9508L808.326 75.9508L807.326 75.9438L807.319 76.9438L808.318 76.9508ZM784.898 171.788L785.066 148.038L783.066 148.024L782.898 171.774L784.898 171.788ZM784.073 147.031L760.324 146.864L760.309 148.864L784.059 149.031L784.073 147.031ZM761.316 147.871L761.82 76.6224L759.82 76.6083L759.317 147.857L761.316 147.871ZM760.813 77.6153L784.562 77.7831L784.576 75.7831L760.827 75.6154L760.813 77.6153ZM785.569 76.7902L785.737 53.0407L783.737 53.0266L783.569 76.776L785.569 76.7902ZM784.73 54.0336L903.477 54.8723L903.491 52.8723L784.744 52.0337L784.73 54.0336ZM902.484 53.8652L902.316 77.6146L904.316 77.6288L904.484 53.8794L902.484 53.8652ZM903.309 78.6217L927.058 78.7894L927.073 76.7895L903.323 76.6217L903.309 78.6217ZM926.066 77.7824L925.562 149.031L927.562 149.045L928.066 77.7965L926.066 77.7824ZM926.569 148.038L902.82 147.87L902.806 149.87L926.555 150.038L926.569 148.038ZM901.813 148.863L901.645 172.612L903.645 172.626L903.813 148.877L901.813 148.863ZM902.652 171.619L783.905 170.781L783.891 172.781L902.638 173.619L902.652 171.619ZM807.808 149.199L879.056 149.702L879.071 147.702L807.822 147.199L807.808 149.199ZM880.064 148.709L880.567 77.461L878.567 77.4469L878.064 148.695L880.064 148.709ZM879.574 76.454L808.326 75.9508L808.311 77.9508L879.56 78.454L879.574 76.454ZM807.319 76.9438L806.815 148.192L808.815 148.206L809.318 76.9579L807.319 76.9438Z" fill="black" mask="url(#path-1-outside-1_159_2)"/>
</svg>
